<svg width="182" height="227" viewBox="0 0 182 227" fill="none" xmlns="http://www.w3.org/2000/svg">
<path d="M29.0001 219.5C27.0671 219.5 25.5001 221.067 25.5001 223C25.5001 224.933 27.0671 226.5 29.0001 226.5V219.5ZM154.5 223V226.5C156.433 226.5 158 224.933 158 223H154.5ZM154.5 71.5V68H151V71.5H154.5ZM131 23H127.5V26.5H131V23ZM115.5 4.5L115.5 8L115.5 4.5ZM68.5 1C66.567 1 65 2.567 65 4.5C65 6.433 66.567 8 68.5 8V1ZM24.0001 223C24.0001 224.933 25.5671 226.5 27.5001 226.5C29.4331 226.5 31.0001 224.933 31.0001 223H24.0001ZM31.0001 71.5C31.0001 69.567 29.4331 68 27.5001 68C25.5671 68 24.0001 69.567 24.0001 71.5H31.0001ZM15.4833 19.6709C13.5503 19.6802 11.9909 21.2547 12.0002 23.1877C12.0095 25.1206 13.584 26.6801 15.517 26.6708L15.4833 19.6709ZM51.0001 23L51.0169 26.4999L54.5001 26.4832V23H51.0001ZM113.5 8C115.433 8 117 6.433 117 4.5C117 2.567 115.433 1 113.5 1V8ZM27.5001 74.5C29.4331 74.5 31.0001 72.933 31.0001 71C31.0001 69.067 29.4331 67.5 27.5001 67.5V74.5ZM19.3873 26.4982C21.3193 26.5605 22.936 25.0448 22.9983 23.1128C23.0606 21.1808 21.545 19.5641 19.613 19.5018L19.3873 26.4982ZM29.0001 226.5H154.5V219.5H29.0001V226.5ZM158 223V71.5H151V223H158ZM154.5 75C159.556 75 166.02 75.0467 171.182 73.0839C173.873 72.0604 176.409 70.428 178.245 67.8189C180.085 65.2048 181 61.925 181 58H174C174 60.8249 173.353 62.6076 172.521 63.7904C171.685 64.9782 170.44 65.877 168.693 66.541C164.98 67.9532 159.944 68 154.5 68V75ZM181 58V37H174V58H181ZM181 37C181 34.7241 180.921 30.2694 178.359 26.3854C175.603 22.2069 170.578 19.5 162.5 19.5V26.5C168.922 26.5 171.397 28.543 172.516 30.2396C173.829 32.2306 174 34.7759 174 37H181ZM162.5 19.5H131V26.5H162.5V19.5ZM134.5 23C134.5 19.6691 134.566 14.1529 132.172 9.51843C130.916 7.08773 128.991 4.88857 126.135 3.33277C123.316 1.79686 119.798 1 115.5 1L115.5 8C118.952 8 121.246 8.64064 122.786 9.47973C124.29 10.2989 125.271 11.4123 125.953 12.7316C127.434 15.5971 127.5 19.3309 127.5 23H134.5ZM115.5 1H68.5V8H115.5V1ZM31.0001 223V71.5H24.0001V223H31.0001ZM15.517 26.6708L51.0169 26.4999L50.9832 19.5L15.4833 19.6709L15.517 26.6708ZM54.5001 23C54.5001 19.3309 54.5666 15.5971 56.0471 12.7316C56.7287 11.4123 57.7099 10.2989 59.2136 9.47973C60.7537 8.64064 63.0478 8 66.5001 8V1C62.2023 1 58.6839 1.79686 55.8647 3.33277C53.009 4.88857 51.0839 7.08773 49.8281 9.51843C47.4336 14.1529 47.5001 19.6691 47.5001 23H54.5001ZM66.5001 8H113.5V1H66.5001V8ZM27.5001 67.5C21.8975 67.5 16.9058 67.7023 13.1413 66.4828C11.3997 65.9187 10.2139 65.1245 9.43041 64.066C8.6494 63.011 8.00013 61.3315 8.00013 58.5H1.00013C1.00013 62.4185 1.91335 65.6765 3.80422 68.2309C5.69256 70.7818 8.2881 72.2688 10.984 73.1422C16.0945 74.7977 22.6027 74.5 27.5001 74.5V67.5ZM8.00013 58.5V38.5H1.00013V58.5H8.00013ZM8.00013 38.5C8.00013 36.0264 7.95319 32.985 9.2711 30.5309C9.86894 29.4177 10.7594 28.4281 12.1963 27.7017C13.674 26.9547 15.9314 26.3867 19.3873 26.4982L19.613 19.5018C15.3188 19.3633 11.8262 20.0453 9.03834 21.4545C6.20961 22.8844 4.3188 24.9573 3.10414 27.2191C0.797056 31.515 1.00013 36.4736 1.00013 38.5H8.00013Z" fill="black"/>
<path d="M58.5 73.5372V202.463" stroke="black" stroke-width="7"/>
<path d="M89 74.0744V203" stroke="black" stroke-width="7"/>
<path d="M123 73V201.926" stroke="black" stroke-width="7"/>
<path d="M131.502 22.5C131.502 15.5 131.502 4 116.002 4H114.002H69.0018H67.0018C51.5018 4 51.5018 15.5 51.5018 22.5H131.502Z" fill="#030303"/>
<path d="M131.502 22.5H163.002C177.502 22.5 178.002 32 178.002 36.5V57.5C178.002 71 165.502 71 155.002 71L28.0018 70.5C17.5018 70.5 5.00184 71.5 5.00184 58V48V38C5.00184 33.5 4.50182 22 20.0018 22.5M131.502 22.5C131.502 15.5 131.502 4 116.002 4H114.002H69.0018H67.0018C51.5018 4 51.5018 15.5 51.5018 22.5M131.502 22.5H51.5018M16.0018 22.6708L51.5018 22.5" stroke="black" stroke-width="7"/>
<line x1="10" y1="69.5" x2="174" y2="69.5" stroke="black" stroke-width="7"/>
<line x1="16" y1="35.0032" x2="167" y2="35.0031" stroke="black" stroke-width="7"/>
<line x1="19.5" y1="37.5535" x2="19.5" y2="58.4465" stroke="black" stroke-width="7"/>
<line x1="163.5" y1="37" x2="163.5" y2="59" stroke="black" stroke-width="7"/>
</svg>
