<svg width="191" height="235" viewBox="0 0 191 235" fill="none" xmlns="http://www.w3.org/2000/svg">
<path d="M33.0001 219C28.5819 219 25.0001 222.582 25.0001 227C25.0001 231.418 28.5819 235 33.0001 235V219ZM158.5 227V235C162.918 235 166.5 231.418 166.5 227H158.5ZM158.5 75.5V67.5L150.5 67.5V75.5H158.5ZM135 27H127V35H135V27ZM119.5 8.5L119.5 16.5L119.5 8.5ZM72.5 0.5C68.0818 0.5 64.5 4.08172 64.5 8.5C64.5 12.9183 68.0818 16.5 72.5 16.5V0.5ZM23.5001 227C23.5001 231.418 27.0819 235 31.5001 235C35.9184 235 39.5001 231.418 39.5001 227H23.5001ZM39.5001 75.5C39.5001 71.0817 35.9184 67.5 31.5001 67.5C27.0819 67.5 23.5001 71.0817 23.5001 75.5H39.5001ZM19.4616 19.1709C15.0434 19.1922 11.479 22.7911 11.5002 27.2093C11.5215 31.6276 15.1204 35.192 19.5386 35.1707L19.4616 19.1709ZM55.0001 27L55.0386 34.9999L63.0001 34.9616V27H55.0001ZM117.5 16.5C121.918 16.5 125.5 12.9183 125.5 8.5C125.5 4.08172 121.918 0.5 117.5 0.5V16.5ZM31.5001 83C35.9184 83 39.5001 79.4183 39.5001 75C39.5001 70.5817 35.9184 67 31.5001 67V83ZM23.2422 34.9958C27.6582 35.1383 31.3535 31.6739 31.496 27.2579C31.6384 22.8419 28.174 19.1466 23.758 19.0041L23.2422 34.9958ZM33.0001 235H158.5V219H33.0001V235ZM166.5 227V75.5H150.5V227H166.5ZM158.5 83.5C163.307 83.5 170.689 83.6068 176.781 81.29C180.08 80.0354 183.446 77.9314 185.925 74.4086C188.412 70.8745 189.5 66.6322 189.5 62H173.5C173.5 64.1177 173.025 64.938 172.84 65.2007C172.648 65.4748 172.232 65.902 171.094 66.3349C168.311 67.3932 164.193 67.5 158.5 67.5V83.5ZM189.5 62V41H173.5V62H189.5ZM189.5 41C189.5 38.6908 189.48 33.0086 186.116 27.9077C182.307 22.1337 175.643 19 166.5 19V35C169.276 35 170.824 35.4571 171.614 35.8207C172.326 36.1487 172.601 36.477 172.759 36.7172C173.27 37.4914 173.5 38.8091 173.5 41H189.5ZM166.5 19H135V35H166.5V19ZM143 27C143 23.8865 143.152 17.2245 140.17 11.4528C138.545 8.30768 136.013 5.41049 132.288 3.38116C128.647 1.39728 124.341 0.5 119.5 0.5L119.5 16.5C122.409 16.5 123.916 17.0402 124.634 17.4313C125.268 17.777 125.643 18.1923 125.955 18.7972C126.848 20.5254 127 23.1134 127 27H143ZM119.5 0.5H72.5V16.5H119.5V0.5ZM39.5001 227V75.5H23.5001V227H39.5001ZM19.5386 35.1707L55.0386 34.9999L54.9616 19.0001L19.4616 19.1709L19.5386 35.1707ZM63.0001 27C63.0001 23.1134 63.152 20.5254 64.045 18.7972C64.3575 18.1923 64.7319 17.777 65.3664 17.4313C66.0843 17.0402 67.5913 16.5 70.5001 16.5V0.5C65.6588 0.5 61.3533 1.39728 57.7118 3.38116C53.9869 5.41049 51.4552 8.30768 49.8302 11.4528C46.8481 17.2245 47.0001 23.8865 47.0001 27H63.0001ZM70.5001 16.5H117.5V0.5H70.5001V16.5ZM31.5001 67C28.6237 67 26.2433 67.0599 23.8303 66.9531C21.4586 66.8482 19.7422 66.5952 18.528 66.2019C17.3999 65.8364 17.1205 65.4876 17.0473 65.3886C16.9797 65.2974 16.5001 64.6326 16.5001 62.5H0.500128C0.500128 67.1174 1.58304 71.3901 4.18738 74.9083C6.78596 78.4186 10.2878 80.3511 13.5972 81.4231C19.573 83.3589 27.0561 83 31.5001 83V67ZM16.5001 62.5V42.5H0.500128V62.5H16.5001ZM16.5001 42.5C16.5001 39.7389 16.5536 37.93 17.2356 36.66C17.4369 36.2852 17.6842 35.9918 18.2264 35.7178C18.862 35.3965 20.3252 34.9017 23.2422 34.9958L23.758 19.0041C18.925 18.8482 14.6383 19.6035 11.0082 21.4385C7.28477 23.3207 4.75086 26.0898 3.13966 29.09C0.196685 34.57 0.500128 40.7611 0.500128 42.5H16.5001Z" fill="black"/>
<path d="M62.5 79.5372V208.463" stroke="black" stroke-width="15"/>
<path d="M93 80.0744V209" stroke="black" stroke-width="15"/>
<path d="M127 79V207.926" stroke="black" stroke-width="15"/>
<path d="M135.502 26.5C135.502 19.5 135.502 8 120.002 8H118.002H73.0018H71.0018C55.5018 8 55.5018 19.5 55.5018 26.5H135.502Z" fill="#030303"/>
<path d="M135.502 26.5H167.002C181.502 26.5 182.002 36 182.002 40.5V61.5C182.002 75 169.502 75 159.002 75L32.0018 74.5C21.5018 74.5 9.00184 75.5 9.00184 62V52V42C9.00184 37.5 8.50182 26 24.0018 26.5M135.502 26.5C135.502 19.5 135.502 8 120.002 8H118.002H73.0018H71.0018C55.5018 8 55.5018 19.5 55.5018 26.5M135.502 26.5H55.5018M20.0018 26.6708L55.5018 26.5" stroke="black" stroke-width="16"/>
<line x1="17" y1="33.5" x2="181" y2="33.5" stroke="black" stroke-width="17"/>
<line x1="14" y1="68.5" x2="178" y2="68.5" stroke="black" stroke-width="17"/>
<line x1="21.5" y1="41" x2="21.5" y2="63" stroke="black" stroke-width="9"/>
<line x1="173.5" y1="41" x2="173.5" y2="63" stroke="black" stroke-width="9"/>
</svg>
