<svg width="184" height="229" viewBox="0 0 184 229" fill="none" xmlns="http://www.w3.org/2000/svg">
<path d="M30.0001 219.5C27.5149 219.5 25.5001 221.515 25.5001 224C25.5001 226.485 27.5149 228.5 30.0001 228.5V219.5ZM155.5 224V228.5C157.985 228.5 160 226.485 160 224H155.5ZM155.5 72.5V68H151V72.5H155.5ZM132 24H127.5V28.5H132V24ZM116.5 5.5L116.5 10L116.5 5.5ZM69.5 1C67.0148 1 65 3.01472 65 5.5C65 7.98528 67.0148 10 69.5 10V1ZM24.0001 224C24.0001 226.485 26.0149 228.5 28.5001 228.5C30.9854 228.5 33.0001 226.485 33.0001 224H24.0001ZM33.0001 72.5C33.0001 70.0147 30.9854 68 28.5001 68C26.0149 68 24.0001 70.0147 24.0001 72.5H33.0001ZM16.4785 19.6709C13.9932 19.6828 11.9882 21.7072 12.0002 24.1925C12.0121 26.6777 14.0365 28.6827 16.5218 28.6708L16.4785 19.6709ZM52.0001 24L52.0217 28.4999L56.5001 28.4784V24H52.0001ZM114.5 10C116.985 10 119 7.98528 119 5.5C119 3.01472 116.985 1 114.5 1V10ZM28.5001 76.5C30.9854 76.5 33.0001 74.4853 33.0001 72C33.0001 69.5147 30.9854 67.5 28.5001 67.5V76.5ZM20.355 28.4976C22.839 28.5778 24.9177 26.629 24.9978 24.145C25.0779 21.6611 23.1292 19.5824 20.6452 19.5023L20.355 28.4976ZM30.0001 228.5H155.5V219.5H30.0001V228.5ZM160 224V72.5H151V224H160ZM155.5 77C160.501 77 167.169 77.06 172.537 75.0186C175.364 73.9437 178.084 72.2065 180.063 69.3944C182.046 66.5759 183 63.0822 183 59H174C174 61.6678 173.391 63.2366 172.703 64.2149C172.01 65.1997 170.949 65.9937 169.338 66.6063C165.831 67.9399 160.999 68 155.5 68V77ZM183 59V38H174V59H183ZM183 38C183 35.7167 182.934 30.9892 180.194 26.8348C177.204 22.3018 171.815 19.5 163.5 19.5V28.5C169.685 28.5 171.796 30.4482 172.681 31.7902C173.816 33.5108 174 35.7833 174 38H183ZM163.5 19.5H132V28.5H163.5V19.5ZM136.5 24C136.5 20.7174 136.585 14.9466 134.06 10.0594C132.723 7.46994 130.663 5.11567 127.614 3.45464C124.612 1.81917 120.919 1 116.5 1L116.5 10C119.831 10 121.951 10.6183 123.308 11.3579C124.619 12.0718 125.465 13.0301 126.065 14.1906C127.415 16.8034 127.5 20.2825 127.5 24H136.5ZM116.5 1H69.5V10H116.5V1ZM33.0001 224V72.5H24.0001V224H33.0001ZM16.5218 28.6708L52.0217 28.4999L51.9784 19.5L16.4785 19.6709L16.5218 28.6708ZM56.5001 24C56.5001 20.2825 56.5855 16.8034 57.9355 14.1906C58.5351 13.0301 59.3815 12.0718 60.692 11.3579C62.0494 10.6183 64.1686 10 67.5001 10V1C63.0815 1 59.3882 1.81917 56.3863 3.45464C53.3374 5.11567 51.2775 7.46994 49.9396 10.0594C47.4146 14.9466 47.5001 20.7174 47.5001 24H56.5001ZM67.5001 10H114.5V1H67.5001V10ZM28.5001 67.5C22.7968 67.5 18.0217 67.6887 14.4494 66.5315C12.8442 66.0115 11.8599 65.3163 11.2342 64.471C10.6117 63.6302 10.0001 62.1762 10.0001 59.5H1.00013C1.00013 63.5738 1.95106 67.0573 4.00048 69.8258C6.04665 72.59 8.8436 74.176 11.6758 75.0935C16.9786 76.8113 23.7035 76.5 28.5001 76.5V67.5ZM10.0001 59.5V39.5H1.00013V59.5H10.0001ZM10.0001 39.5C10.0001 36.9625 9.97549 34.195 11.1521 32.0041C11.6618 31.0549 12.4093 30.22 13.6474 29.5942C14.938 28.9418 17.0189 28.39 20.355 28.4976L20.6452 19.5023C16.2313 19.3599 12.5622 20.0582 9.5872 21.5621C6.55965 23.0925 4.52592 25.3201 3.22314 27.7459C0.774751 32.305 1.00013 37.5375 1.00013 39.5H10.0001Z" fill="black"/>
<path d="M59.5 74.5372V203.463" stroke="black" stroke-width="9"/>
<path d="M90 75.0744V204" stroke="black" stroke-width="9"/>
<path d="M124 74V202.926" stroke="black" stroke-width="9"/>
<line x1="11" y1="69.5" x2="175" y2="69.5" stroke="black" stroke-width="9"/>
<path d="M132.502 23.5C132.502 16.5 132.502 5 117.002 5H115.002H70.0018H68.0018C52.5018 5 52.5018 16.5 52.5018 23.5H132.502Z" fill="#030303"/>
<path d="M132.502 23.5H164.002C178.502 23.5 179.002 33 179.002 37.5V58.5C179.002 72 166.502 72 156.002 72L29.0018 71.5C18.5018 71.5 6.00184 72.5 6.00184 59V49V39C6.00184 34.5 5.50182 23 21.0018 23.5M132.502 23.5C132.502 16.5 132.502 5 117.002 5H115.002H70.0018H68.0018C52.5018 5 52.5018 16.5 52.5018 23.5M132.502 23.5H52.5018M17.0018 23.6708L52.5018 23.5" stroke="black" stroke-width="9"/>
<path d="M16 37.0032L169 37.0031" stroke="black" stroke-width="9"/>
<line x1="20.5" y1="40.5535" x2="20.5" y2="61.4465" stroke="black" stroke-width="9"/>
<line x1="164.5" y1="39" x2="164.5" y2="61" stroke="black" stroke-width="9"/>
</svg>
